<svg width="48" height="48" viewBox="0 0 48 48" fill="none" xmlns="http://www.w3.org/2000/svg">
<path d="M3 18.2C3 12.8795 3 10.2193 4.03544 8.18709C4.94624 6.39955 6.39955 4.94624 8.18709 4.03544C10.2193 3 12.8795 3 18.2 3H29.8C35.1205 3 37.7807 3 39.8129 4.03544C41.6004 4.94624 43.0538 6.39955 43.9646 8.18709C45 10.2193 45 12.8795 45 18.2V29.8C45 35.1205 45 37.7807 43.9646 39.8129C43.0538 41.6004 41.6004 43.0538 39.8129 43.9646C37.7807 45 35.1205 45 29.8 45H18.2C12.8795 45 10.2193 45 8.18709 43.9646C6.39955 43.0538 4.94624 41.6004 4.03544 39.8129C3 37.7807 3 35.1205 3 29.8V18.2Z" fill="#001E36"/>
<path d="M12 33.7744V15.3051C12 15.1795 12.0525 15.1077 12.175 15.1077C13.9834 15.1077 15.7911 15 17.6 15C20.5352 15 23.7135 16.0036 24.8275 19.0744C25.09 19.8282 25.23 20.6 25.23 21.4077C25.23 22.9513 24.88 24.2256 24.18 25.2308C22.2246 28.0385 18.8355 27.9949 15.7975 27.9949V33.7564C15.8213 33.927 15.6759 34.0077 15.535 34.0077H12.21C12.07 34.0077 12 33.9359 12 33.7744ZM15.815 18.5718V24.6026C17.0196 24.6908 18.2801 24.7004 19.4375 24.3154C20.7152 23.9468 21.415 22.8407 21.415 21.5154C21.4505 20.386 20.8351 19.3024 19.7875 18.8949C18.644 18.4194 17.0493 18.3909 15.815 18.5718Z" fill="#31A8FF"/>
<path d="M36.1451 23.4112C35.6156 23.1321 35.0516 22.928 34.4687 22.8043C33.7195 22.628 30.7648 22.0107 30.7637 23.5556C30.7899 24.4182 32.1591 24.8408 32.764 25.0872C34.8878 25.8163 37.2911 27.1197 37.2439 29.7397C37.3088 33.0013 34.1487 34.3052 31.4398 34.3055C30.0296 34.3201 28.5605 34.1017 27.2699 33.4963C27.1467 33.4311 27.0674 33.2917 27.0727 33.1496V30.0287C27.0588 29.9035 27.1931 29.7942 27.2981 29.8842C28.5626 30.6489 30.0615 31.0202 31.5243 31.0401C32.1701 31.0401 33.45 30.9775 33.4403 30.0287C33.4403 29.1181 31.9092 28.6995 31.2989 28.4682C30.4143 28.1524 29.5754 27.7149 28.8054 27.1678C27.7294 26.4003 27.0543 25.1696 27.0727 23.8157C27.0664 20.7446 29.9753 19.3662 32.595 19.3655C33.8197 19.3554 35.1348 19.4461 36.2749 19.9435C36.4388 19.9917 36.4728 20.1644 36.4721 20.3191V23.2378C36.4825 23.4189 36.2813 23.4806 36.1451 23.4112Z" fill="#31A8FF"/>
</svg>
