<svg width="48" height="48" viewBox="0 0 48 48" fill="none" xmlns="http://www.w3.org/2000/svg">
<g clip-path="url(#clip0_120_741)">
<g clip-path="url(#clip1_120_741)">
<path d="M24 35.9951C30.6274 35.9951 36 30.6225 36 23.9951C36 17.3677 30.6274 11.9951 24 11.9951C17.3726 11.9951 12 17.3677 12 23.9951C12 30.6225 17.3726 35.9951 24 35.9951Z" fill="white"/>
<path d="M24 12H44.781C42.6752 8.35137 39.6458 5.3215 35.9976 3.21501C32.3494 1.10853 28.2108 -0.000304001 23.9981 6.25182e-08C19.7854 0.000304126 15.647 1.10974 11.9991 3.21675C8.35118 5.32376 5.32228 8.35407 3.21698 12.003L13.607 30L13.617 29.998C12.5598 28.1752 12.0019 26.106 11.9994 23.9989C11.997 21.8917 12.5501 19.8212 13.6031 17.996C14.656 16.1708 16.1716 14.6555 17.9969 13.6028C19.8222 12.5501 21.8928 11.9972 24 12Z" fill="url(#paint0_linear_120_741)"/>
<path d="M24 33.5C29.2467 33.5 33.5 29.2467 33.5 24C33.5 18.7533 29.2467 14.5 24 14.5C18.7533 14.5 14.5 18.7533 14.5 24C14.5 29.2467 18.7533 33.5 24 33.5Z" fill="#1A73E8"/>
<path d="M34.391 30.0029L24.001 47.9999C28.2136 48.0005 32.3522 46.8919 36.0005 44.7856C39.6489 42.6794 42.6784 39.6497 44.7844 36.0012C46.8904 32.3528 47.9988 28.2142 47.998 24.0015C47.9972 19.7888 46.8874 15.6506 44.78 12.0029H23.999L23.996 12.0129C26.1029 12.0089 28.1737 12.5604 29.9996 13.6118C31.8255 14.6632 33.342 16.1774 34.3961 18.0017C35.4502 19.8261 36.0048 21.896 36.0039 24.003C36.003 26.11 35.4467 28.1795 34.391 30.0029Z" fill="url(#paint1_linear_120_741)"/>
<path d="M13.609 30.0031L3.21803 12.0061C1.11113 15.6541 0.00184406 19.7926 0.001709 24.0053C0.00157393 28.2181 1.1106 32.3566 3.21726 36.0048C5.32392 39.6529 8.35397 42.6822 12.0027 44.7878C15.6515 46.8935 19.7903 48.0014 24.003 48.0001L34.393 30.0031L34.386 29.9961C33.336 31.8227 31.823 33.3403 29.9995 34.3957C28.176 35.4512 26.1065 36.0073 23.9996 36.008C21.8926 36.0088 19.8227 35.454 17.9985 34.3998C16.1743 33.3455 14.6603 31.829 13.609 30.0031Z" fill="url(#paint2_linear_120_741)"/>
</g>
</g>
<defs>
<linearGradient id="paint0_linear_120_741" x1="3.21698" y1="15" x2="44.781" y2="15" gradientUnits="userSpaceOnUse">
<stop stop-color="#D93025"/>
<stop offset="1" stop-color="#EA4335"/>
</linearGradient>
<linearGradient id="paint1_linear_120_741" x1="20.722" y1="47.6789" x2="41.504" y2="11.6839" gradientUnits="userSpaceOnUse">
<stop stop-color="#FCC934"/>
<stop offset="1" stop-color="#FBBC04"/>
</linearGradient>
<linearGradient id="paint2_linear_120_741" x1="26.598" y1="46.5021" x2="5.81603" y2="10.5061" gradientUnits="userSpaceOnUse">
<stop stop-color="#1E8E3E"/>
<stop offset="1" stop-color="#34A853"/>
</linearGradient>
<clipPath id="clip0_120_741">
<rect width="48" height="48" rx="24" fill="white"/>
</clipPath>
<clipPath id="clip1_120_741">
<rect width="48" height="48" fill="white"/>
</clipPath>
</defs>
</svg>
