<svg width="48" height="48" viewBox="0 0 48 48" fill="none" xmlns="http://www.w3.org/2000/svg">
<path d="M35.1562 3H12.8438C7.4072 3 3 7.4072 3 12.8438V35.1562C3 40.5928 7.4072 45 12.8438 45H35.1562C40.5928 45 45 40.5928 45 35.1562V12.8438C45 7.4072 40.5928 3 35.1562 3Z" fill="#242938"/>
<mask id="mask0_65_88" style="mask-type:luminance" maskUnits="userSpaceOnUse" x="13" y="8" width="22" height="33">
<path d="M34.8794 8H13V40.8125H34.8794V8Z" fill="white"/>
</mask>
<g mask="url(#mask0_65_88)">
<path d="M18.471 40.8126C21.4898 40.8126 23.9397 38.3626 23.9397 35.3439V29.875H18.471C15.4522 29.875 13.0022 32.3251 13.0022 35.3439C13.0022 38.3626 15.4522 40.8126 18.471 40.8126Z" fill="#0ACF83"/>
<path d="M13.0022 24.4062C13.0022 21.3875 15.4522 18.9375 18.471 18.9375H23.9397V29.8749H18.471C15.4522 29.8749 13.0022 27.425 13.0022 24.4062Z" fill="#A259FF"/>
<path d="M13.0022 13.4687C13.0022 10.45 15.4522 8 18.471 8H23.9397V18.9375H18.471C15.4522 18.9375 13.0022 16.4875 13.0022 13.4687Z" fill="#F24E1E"/>
<path d="M23.9397 8H29.4084C32.4271 8 34.8773 10.45 34.8773 13.4687C34.8773 16.4875 32.4271 18.9375 29.4084 18.9375H23.9397V8Z" fill="#FF7262"/>
<path d="M34.8773 24.4062C34.8773 27.425 32.4271 29.8749 29.4084 29.8749C26.3896 29.8749 23.9397 27.425 23.9397 24.4062C23.9397 21.3875 26.3896 18.9375 29.4084 18.9375C32.4271 18.9375 34.8773 21.3875 34.8773 24.4062Z" fill="#1ABCFE"/>
</g>
</svg>
