<svg width="48" height="48" viewBox="0 0 48 48" fill="none" xmlns="http://www.w3.org/2000/svg">
<g clip-path="url(#clip0_108_1027)">
<path d="M36.75 0H11.25C5.0368 0 0 5.0368 0 11.25V36.75C0 42.9632 5.0368 48 11.25 48H36.75C42.9632 48 48 42.9632 48 36.75V11.25C48 5.0368 42.9632 0 36.75 0Z" fill="#242938"/>
<mask id="mask0_108_1027" style="mask-type:luminance" maskUnits="userSpaceOnUse" x="13" y="8" width="22" height="33">
<path d="M34.8794 8H13V40.8125H34.8794V8Z" fill="white"/>
</mask>
<g mask="url(#mask0_108_1027)">
<path d="M18.4707 40.8126C21.4895 40.8126 23.9395 38.3626 23.9395 35.3439V29.875H18.4707C15.452 29.875 13.002 32.3251 13.002 35.3439C13.002 38.3626 15.452 40.8126 18.4707 40.8126Z" fill="#0ACF83"/>
<path d="M13.002 24.4062C13.002 21.3875 15.452 18.9375 18.4707 18.9375H23.9395V29.8749H18.4707C15.452 29.8749 13.002 27.425 13.002 24.4062Z" fill="#A259FF"/>
<path d="M13.002 13.4687C13.002 10.45 15.452 8 18.4707 8H23.9395V18.9375H18.4707C15.452 18.9375 13.002 16.4875 13.002 13.4687Z" fill="#F24E1E"/>
<path d="M23.9395 8H29.4081C32.4269 8 34.877 10.45 34.877 13.4687C34.877 16.4875 32.4269 18.9375 29.4081 18.9375H23.9395V8Z" fill="#FF7262"/>
<path d="M34.877 24.4062C34.877 27.425 32.4269 29.8749 29.4081 29.8749C26.3894 29.8749 23.9395 27.425 23.9395 24.4062C23.9395 21.3875 26.3894 18.9375 29.4081 18.9375C32.4269 18.9375 34.877 21.3875 34.877 24.4062Z" fill="#1ABCFE"/>
</g>
</g>
<defs>
<clipPath id="clip0_108_1027">
<rect width="48" height="48" rx="24" fill="white"/>
</clipPath>
</defs>
</svg>
