<svg width="142" height="36" viewBox="0 0 142 36" fill="none" xmlns="http://www.w3.org/2000/svg">
<path d="M135.715 32.16C135.715 30.976 136.004 30.144 136.58 29.664C137.156 29.184 137.844 28.944 138.644 28.944C139.476 28.944 140.18 29.184 140.756 29.664C141.364 30.144 141.668 30.976 141.668 32.16C141.668 33.312 141.364 34.144 140.756 34.656C140.18 35.168 139.476 35.424 138.644 35.424C137.844 35.424 137.156 35.168 136.58 34.656C136.004 34.144 135.715 33.312 135.715 32.16Z" fill="black"/>
<path d="M119.704 8.54399C122.616 8.54399 124.792 9.29599 126.232 10.8C127.672 12.272 128.392 14.672 128.392 18V34.752H124.216V18.192C124.216 16.176 123.784 14.656 122.92 13.632C122.088 12.608 120.776 12.096 118.984 12.096C116.488 12.096 114.696 12.816 113.608 14.256C112.552 15.696 112.024 17.792 112.024 20.544V34.752H107.848V18.192C107.848 16.848 107.656 15.728 107.272 14.832C106.888 13.904 106.312 13.216 105.544 12.768C104.776 12.32 103.784 12.096 102.568 12.096C100.84 12.096 99.4801 12.464 98.4881 13.2C97.4961 13.904 96.7761 14.944 96.3281 16.32C95.9121 17.696 95.7041 19.392 95.7041 21.408V34.752H91.4801V9.02399H94.8881L95.5121 12.528H95.7521C96.2961 11.632 96.9521 10.896 97.7201 10.32C98.5201 9.71199 99.4001 9.26399 100.36 8.97599C101.32 8.68799 102.312 8.54399 103.336 8.54399C105.32 8.54399 106.968 8.89599 108.28 9.59999C109.624 10.304 110.6 11.392 111.208 12.864H111.448C112.312 11.392 113.48 10.304 114.952 9.59999C116.456 8.89599 118.04 8.54399 119.704 8.54399Z" fill="black"/>
<path d="M83.3122 9.024V34.752H79.8562L79.2322 31.344H79.0403C78.4963 32.24 77.7922 32.976 76.9282 33.552C76.0642 34.128 75.1203 34.544 74.0963 34.8C73.0723 35.088 72.0002 35.232 70.8802 35.232C68.8322 35.232 67.1043 34.912 65.6963 34.272C64.3203 33.6 63.2802 32.576 62.5762 31.2C61.8722 29.824 61.5202 28.048 61.5202 25.872V9.024H65.7923V25.584C65.7923 27.632 66.2562 29.168 67.1842 30.192C68.1122 31.216 69.5522 31.728 71.5042 31.728C73.4242 31.728 74.9283 31.376 76.0163 30.672C77.1363 29.936 77.9202 28.88 78.3682 27.504C78.8482 26.096 79.0882 24.4 79.0882 22.416V9.024H83.3122Z" fill="black"/>
<path d="M45.5779 17.328L54.5059 0.479996H59.1619L47.7379 21.456V34.752H43.4179V21.648L31.9939 0.479996H36.6979L45.5779 17.328Z" fill="black"/>
<path d="M16.608 16.656H28.464V33.456C26.608 34.064 24.736 34.512 22.848 34.8C20.96 35.088 18.816 35.232 16.416 35.232C12.864 35.232 9.872 34.528 7.44 33.12C5.008 31.68 3.152 29.648 1.872 27.024C0.624 24.368 0 21.232 0 17.616C0 14.032 0.704 10.928 2.112 8.304C3.52 5.68 5.536 3.648 8.16 2.208C10.816 0.736 14.016 0 17.76 0C19.68 0 21.488 0.176001 23.184 0.528C24.912 0.880001 26.512 1.376 27.984 2.016L26.352 5.76C25.136 5.216 23.76 4.752 22.224 4.368C20.72 3.984 19.152 3.792 17.52 3.792C14.8 3.792 12.464 4.352 10.512 5.472C8.56 6.592 7.072 8.192 6.048 10.272C5.024 12.32 4.512 14.768 4.512 17.616C4.512 20.336 4.944 22.752 5.808 24.864C6.704 26.944 8.096 28.576 9.984 29.76C11.872 30.912 14.352 31.488 17.424 31.488C18.448 31.488 19.344 31.456 20.112 31.392C20.912 31.296 21.632 31.184 22.272 31.056C22.944 30.928 23.568 30.8 24.144 30.672V20.496H16.608V16.656Z" fill="black"/>
</svg>
