<svg width="48" height="48" viewBox="0 0 48 48" fill="none" xmlns="http://www.w3.org/2000/svg">
<path d="M9.34161 42.7625L6 5L41.9995 5.01441L38.686 42.7337L23.9717 47L9.34161 42.7625ZM35.9762 40.7014L38.7702 8.35827H24.0278L24.1402 44.0309L35.9762 40.7014ZM22.6519 13.1002H19.0716L19.0295 32.4571L12.0795 30.5113L12.0935 34.9362L22.6519 37.862V13.1002Z" fill="#D4B830"/>
<path opacity="0.986" d="M12.0935 34.9363L12.0795 30.5115C12.0795 30.5115 16.5162 31.7942 19.0295 32.4572L19.0716 13.1147H22.6519V37.8622L12.0935 34.9363Z" fill="#EBEBEB" fill-opacity="0.9216"/>
<path d="M24.0278 8.34424H38.7702L35.9762 40.6874L24.0278 44.0169V8.34424ZM35.218 35.2681L36.1868 23.1754L29.0262 23.997V17.5398L36.6642 17.511L36.9731 13.1006L25.4459 13.1582L25.6004 29.2145L32.5644 27.9894L32.4661 31.5639L25.4459 33.4808L25.5161 37.8624L35.218 35.2681Z" fill="#FDD83C"/>
</svg>
