<svg width="48" height="48" viewBox="0 0 48 48" fill="none" xmlns="http://www.w3.org/2000/svg">
<path d="M24 45C35.598 45 45 35.598 45 24C45 12.402 35.598 3 24 3C12.402 3 3 12.402 3 24C3 35.598 12.402 45 24 45Z" fill="#0769AD"/>
<path d="M33.9859 20.1316C35.8714 20.1316 37.5978 19.5028 38.9325 18.4599C37.5468 20.2857 35.251 21.4794 32.6533 21.4794C28.4215 21.4794 24.991 18.3116 24.991 14.4038C24.991 12.2371 26.0457 10.2979 27.7068 9C26.8351 10.1485 26.3236 11.5472 26.3236 13.0561C26.3236 16.9638 29.7541 20.1316 33.9859 20.1316Z" fill="#78CFF5"/>
<path d="M38.8596 24.9878C36.8268 26.5823 34.1952 27.5441 31.3207 27.5441C24.8811 27.5441 19.6606 22.717 19.6606 16.7623C19.6606 14.4528 20.446 12.3128 21.7831 10.5583C19.2619 12.5361 17.6617 15.4871 17.6617 18.7838C17.6617 24.7385 22.8822 29.5658 29.3218 29.5658C33.264 29.5658 36.7491 27.757 38.8596 24.9878Z" fill="#78CFF5"/>
<path d="M39 31.1553C36.1033 33.9195 32.0905 35.6308 27.6562 35.6308C18.8245 35.6308 11.6652 28.8426 11.6652 20.4688C11.6652 17.8153 12.384 15.3211 13.6472 13.1516C10.7748 15.8926 9 19.6689 9 23.8381C9 32.2119 16.1593 39.0001 24.991 39.0001C31.024 39.0001 36.2769 35.8323 39 31.1553Z" fill="#78CFF5"/>
</svg>
