<svg width="48" height="48" viewBox="0 0 48 48" fill="none" xmlns="http://www.w3.org/2000/svg">
<path d="M25.7587 3.44808C24.694 2.8493 23.3059 2.85198 22.2403 3.44808C16.9033 6.39341 11.5662 9.33962 6.22824 12.2836C5.18953 12.83 4.48896 13.9455 4.50013 15.1032V32.8992C4.49263 34.0796 5.22933 35.2057 6.29482 35.7447C7.82806 36.5604 9.3177 37.4589 10.8787 38.2203C12.6818 39.1063 14.9376 39.3022 16.7628 38.3783C18.2443 37.6125 18.9024 35.9092 18.9004 34.344C18.9124 28.4709 18.9024 22.5977 18.9051 16.7244C18.9403 16.4634 18.7443 16.1844 18.4596 16.1907C17.7775 16.1799 17.0946 16.1844 16.4125 16.1889C16.1548 16.1646 15.9033 16.3787 15.9228 16.6377C15.9136 22.473 15.9246 28.3101 15.9172 34.1463C15.9321 34.9536 15.3867 35.7294 14.6087 36.0021C12.8118 36.632 7.68297 33.3018 7.68297 33.3018C7.49475 33.2147 7.37523 33.0105 7.39368 32.8077C7.39368 26.9364 7.39459 21.065 7.39368 15.1946C7.3678 14.9579 7.51368 14.7447 7.73103 14.6481C13.0505 11.7201 18.3672 8.78481 23.6866 5.85504C23.8714 5.73173 24.129 5.7321 24.3133 5.85594C29.6328 8.78481 34.9504 11.7174 40.2708 14.6455C40.4889 14.742 40.6285 14.9588 40.6063 15.1946C40.6054 21.065 40.6081 26.9364 40.6045 32.8069C40.6203 33.0147 40.5129 33.216 40.3189 33.3072C35.0491 36.2193 29.7193 39.0375 24.4972 42.0342C24.2694 42.1649 24.0112 42.3129 23.7559 42.1689C22.3827 41.4093 21.0261 40.6202 19.6573 39.8532C19.5085 39.7603 19.3191 39.7205 19.1638 39.8244C18.5502 40.1478 17.973 40.4097 17.2683 40.6887C16.2786 41.0805 16.4367 41.2407 17.3293 41.7607C18.93 42.6666 20.5333 43.5689 22.134 44.4756C23.1877 45.1332 24.6036 45.18 25.6912 44.5723C31.0291 41.6307 36.3654 38.6856 41.7043 35.7439C42.7669 35.202 43.5073 34.0803 43.4998 32.899V15.1032C43.5102 13.969 42.8364 12.8734 41.829 12.3189C36.4734 9.35921 31.1152 6.40596 25.7587 3.44808Z" fill="#8CC84B"/>
<path d="M33.8128 16.8093C31.7178 15.6885 29.2254 15.6288 26.8972 15.7753C25.2153 15.9415 23.4463 16.4056 22.221 17.6113C20.9641 18.8233 20.6905 20.7805 21.2875 22.3627C21.7153 23.4808 22.7922 24.2079 23.9058 24.5925C25.3402 25.0989 26.8468 25.2555 28.3539 25.4121C29.7285 25.5549 31.1035 25.6978 32.4247 26.1063C32.9644 26.2851 33.5929 26.5587 33.7582 27.1459C33.9109 27.8413 33.7435 28.6497 33.1789 29.1328C31.3855 30.5523 26.3968 30.3348 24.6249 29.2176C23.9085 28.7416 23.5998 27.8991 23.4742 27.0961C23.4603 26.8459 23.2588 26.6164 22.9872 26.6355C22.3069 26.6274 21.6267 26.6292 20.9464 26.6346C20.7091 26.6146 20.4624 26.7835 20.4493 27.0258C20.3095 30.7033 23.6871 32.3066 26.8558 32.6595C28.6662 32.832 30.5163 32.8221 32.299 32.4336C33.6391 32.1285 34.9828 31.5666 35.9053 30.5345C37.0429 29.28 37.2666 27.4123 36.7564 25.8498C36.3664 24.6838 35.2518 23.9359 34.1124 23.5512C32.5629 23.0199 30.7266 22.7343 29.3232 22.6006C27.2833 22.4064 24.8593 22.4857 24.282 21.1453C24.0517 20.4435 24.2476 19.572 24.8926 19.1403C26.5992 17.9827 30.0724 18.1365 31.8397 19.0012C32.6512 19.4076 33.1215 20.2422 33.3156 21.0847C33.3516 21.3322 33.5181 21.5905 33.8046 21.5797C34.4802 21.5932 35.1558 21.5833 35.8312 21.5842C36.0633 21.6004 36.3174 21.4695 36.3627 21.2319C36.334 19.4709 35.4348 17.6682 33.8128 16.8093Z" fill="#8CC84B"/>
</svg>
