<svg width="48" height="48" viewBox="0 0 48 48" fill="none" xmlns="http://www.w3.org/2000/svg">
<path fill-rule="evenodd" clip-rule="evenodd" d="M8.574 43.8267L3.41496 37.3997C2.17369 35.8535 1.5 33.9519 1.5 31.9949V8.72249C1.5 5.79096 3.84539 3.35846 6.87107 3.15188L30.7982 1.51827C32.5365 1.3996 34.2642 1.86164 35.6922 2.82705L44.0988 8.51087C45.6038 9.52829 46.5 11.1915 46.5 12.9664V39.4248C46.5 42.2937 44.1939 44.669 41.2314 44.8514L14.675 46.4861C12.311 46.6316 10.026 45.6356 8.574 43.8267Z" fill="white"/>
<path d="M16.8721 20.3681V20.0634C16.8721 19.2911 17.4907 18.6506 18.288 18.5973L24.0949 18.2096L32.1255 30.0353V19.6562L30.0585 19.3806V19.236C30.0585 18.4545 30.6912 17.8098 31.4986 17.7684L36.7824 17.4978V18.2582C36.7824 18.615 36.5169 18.9204 36.1531 18.9819L34.8816 19.197V36.0056L33.2859 36.5543C31.9527 37.0128 30.4686 36.522 29.7054 35.3705L21.9091 23.6058V34.8345L24.3087 35.2937L24.2754 35.5163C24.1705 36.2135 23.5686 36.7409 22.8405 36.7733L16.8721 37.0389C16.7932 36.2891 17.3551 35.6184 18.1303 35.537L18.9154 35.4545V20.4828L16.8721 20.3681Z" fill="black"/>
<path fill-rule="evenodd" clip-rule="evenodd" d="M31.0124 4.45017L7.08521 6.08378C5.65199 6.18164 4.54102 7.33388 4.54102 8.72249V31.9949C4.54102 33.2996 4.99015 34.5672 5.81765 35.5982L10.9767 42.0251C11.8108 43.0641 13.1235 43.6364 14.4815 43.5528L41.0379 41.9181C42.399 41.8343 43.4586 40.7429 43.4586 39.4248V12.9664C43.4586 12.1509 43.0469 11.3867 42.3554 10.9193L33.9488 5.23544C33.092 4.6562 32.0553 4.37897 31.0124 4.45017ZM8.27171 9.0855C7.93892 8.83911 8.09731 8.32583 8.51536 8.29584L31.1733 6.67067C31.8953 6.61889 32.6126 6.81768 33.1964 7.23132L37.7426 10.4522C37.9151 10.5745 37.8342 10.8384 37.6205 10.8501L13.6258 12.155C12.8997 12.1945 12.1829 11.9812 11.6055 11.5538L8.27171 9.0855ZM12.5004 16.2461C12.5004 15.4665 13.1301 14.8227 13.9354 14.7788L39.3045 13.3972C40.0895 13.3544 40.7501 13.958 40.7501 14.7177V37.628C40.7501 38.406 40.1226 39.0492 39.3189 39.095L14.1103 40.5293C13.2369 40.5791 12.5004 39.9078 12.5004 39.0623V16.2461Z" fill="black"/>
</svg>
