<svg width="48" height="48" viewBox="0 0 48 48" fill="none" xmlns="http://www.w3.org/2000/svg">
<g clip-path="url(#clip0_120_106)">
<rect width="48" height="48" rx="24" fill="black"/>
<path d="M0 0H48V48H0" fill="black"/>
<rect x="3" y="3" width="42" height="42" rx="21" fill="black"/>
<path d="M28.2629 8.32473L10.9953 9.59621C9.62539 9.71926 9.125 10.6216 9.125 11.7126V30.6372C9.125 31.4821 9.43672 32.2286 10.1504 33.1966L14.2027 38.463C14.859 39.3079 15.4824 39.4884 16.7621 39.431L36.8023 38.2169C38.484 38.0939 38.9844 37.3146 38.9844 35.9693V14.6821C38.9844 13.9931 38.7055 13.8126 37.9262 13.2138L32.2578 9.22707C30.9125 8.2591 30.3547 8.13605 28.2629 8.32473ZM17.1969 14.3376C15.5727 14.4607 15.2035 14.4607 14.2684 13.7142L11.8977 11.8439C11.6516 11.5978 11.7746 11.2861 12.398 11.2532L28.9848 10.0392C30.3875 9.91613 31.1012 10.4165 31.6344 10.8185L34.4727 12.8775C34.5957 12.9431 34.9074 13.3122 34.5383 13.3122L17.4266 14.3376H17.2051H17.1969ZM15.2937 35.7806V17.7337C15.2937 16.9544 15.5398 16.5771 16.2617 16.5196L35.9328 15.363C36.5891 15.2974 36.9008 15.7403 36.9008 16.5196V34.4435C36.9008 35.2228 36.7777 35.9118 35.6867 35.9693L16.8605 37.0603C15.7695 37.1259 15.302 36.7486 15.302 35.7806H15.2937ZM33.8738 18.7017C33.9969 19.2595 33.8738 19.7927 33.316 19.8583L32.4137 20.047V33.3853C31.6344 33.82 30.8879 34.0415 30.2973 34.0415C29.3293 34.0415 29.0832 33.7298 28.3613 32.8275L22.4387 23.5087V32.5157L24.309 32.9505C24.309 32.9505 24.309 34.0415 22.7832 34.0415L18.6078 34.2876C18.4848 34.0415 18.6078 33.4427 19.0426 33.3196L20.1336 33.0079V21.0724L18.6078 20.9493C18.4848 20.3915 18.7965 19.6122 19.6332 19.5466L24.1203 19.2349L30.2891 28.6767V20.3259L28.7305 20.1372C28.6074 19.481 29.1078 18.9806 29.6984 18.9232L33.8738 18.6771V18.7017Z" fill="#F6F5F5"/>
</g>
<defs>
<clipPath id="clip0_120_106">
<rect width="48" height="48" rx="24" fill="white"/>
</clipPath>
</defs>
</svg>
