<svg width="48" height="48" viewBox="0 0 48 48" fill="none" xmlns="http://www.w3.org/2000/svg">
<g clip-path="url(#clip0_120_62)">
<path d="M0 0H48V48H0" fill="#C80A0A"/>
<path d="M38.7187 28.3125C37.875 27.375 36 26.9062 33.4687 26.9062C31.9687 26.9062 30.375 27.0938 28.5 27.375C26.5147 25.5155 24.8655 23.3271 23.625 20.9062C24.5625 18.0938 25.2187 15.375 25.2187 13.3125C25.2187 11.7188 24.6562 9.1875 22.4062 9.1875C21.75 9.1875 21.1875 9.5625 20.8125 10.125C19.875 11.8125 20.25 15.5625 22.0312 19.5C20.73 23.2625 19.1636 26.9279 17.3437 30.4688C12.375 32.5312 9.09372 34.7812 8.81247 36.5625C8.62497 37.4062 9.18747 38.8125 11.1562 38.8125C14.0625 38.8125 17.25 34.5938 19.6875 30.2812C22.5013 29.3137 25.3846 28.5615 28.3125 28.0312C31.875 31.125 34.9687 31.5938 36.4687 31.5938C39.4687 31.5938 39.75 29.4375 38.7187 28.3125ZM21.2812 10.4062C22.0312 9.28125 23.7187 9.65625 23.7187 11.9062C23.7187 13.4062 23.25 15.8438 22.3125 18.6562C20.625 14.7188 20.625 11.625 21.2812 10.4062ZM9.37497 36.6562C9.65622 35.1562 12.4687 33.0938 16.875 31.3125C14.4375 35.4375 12 38.0625 10.5 38.0625C9.56247 38.0625 9.28122 37.2188 9.37497 36.6562ZM27.8437 27.4688C25.2021 27.961 22.6011 28.6504 20.0625 29.5312C21.4501 27.0267 22.5808 24.3883 23.4375 21.6562C24.6697 23.7622 26.1489 25.7135 27.8437 27.4688ZM29.0625 27.8438C32.0625 27.375 34.5937 27.4688 35.7187 27.6562C38.4375 28.2188 37.5 31.5 34.5 30.75C32.3437 30.2812 30.5625 29.0625 29.0625 27.8438Z" fill="white"/>
</g>
<defs>
<clipPath id="clip0_120_62">
<rect width="48" height="48" rx="24" fill="white"/>
</clipPath>
</defs>
</svg>
