<svg width="48" height="48" viewBox="0 0 48 48" fill="none" xmlns="http://www.w3.org/2000/svg">
<g clip-path="url(#clip0_108_1070)">
<path d="M24.5 0C10.9637 0 0 11.0117 0 24.6071C0 35.4957 7.01313 44.6926 16.7519 47.953C17.9769 48.1683 18.4362 47.4301 18.4362 46.7842C18.4362 46.1997 18.4056 44.2619 18.4056 42.2011C12.25 43.3392 10.6575 40.6939 10.1675 39.3098C9.89188 38.6023 8.6975 36.4184 7.65625 35.834C6.79875 35.3726 5.57375 34.2346 7.62563 34.2038C9.555 34.173 10.9331 35.9878 11.3925 36.726C13.5975 40.4478 17.1194 39.402 18.5281 38.7561C18.7425 37.1566 19.3856 36.0801 20.09 35.4649C14.6387 34.8497 8.9425 32.7274 8.9425 23.3152C8.9425 20.6392 9.89188 18.4245 11.4538 16.702C11.2087 16.0869 10.3513 13.5646 11.6988 10.1812C11.6988 10.1812 13.7506 9.53523 18.4362 12.7034C20.3962 12.1497 22.4788 11.8729 24.5612 11.8729C26.6437 11.8729 28.7262 12.1497 30.6862 12.7034C35.3719 9.50447 37.4238 10.1812 37.4238 10.1812C38.7713 13.5646 37.9137 16.0869 37.6688 16.702C39.2306 18.4245 40.18 20.6084 40.18 23.3152C40.18 32.7581 34.4531 34.8497 29.0019 35.4649C29.89 36.2339 30.6556 37.7103 30.6556 40.0172C30.6556 43.3084 30.625 45.9537 30.625 46.7842C30.625 47.4301 31.0844 48.1991 32.3094 47.953C37.1731 46.304 41.3994 43.1645 44.3935 38.9763C47.3876 34.7884 48.9988 29.7629 49 24.6071C49 11.0117 38.0363 0 24.5 0Z" fill="black"/>
</g>
<defs>
<clipPath id="clip0_108_1070">
<rect width="48" height="48" rx="24" fill="white"/>
</clipPath>
</defs>
</svg>
