<svg width="48" height="48" viewBox="0 0 48 48" fill="none" xmlns="http://www.w3.org/2000/svg">
<path d="M35.1562 3H12.8438C7.4072 3 3 7.4072 3 12.8438V35.1562C3 40.5928 7.4072 45 12.8438 45H35.1562C40.5928 45 45 40.5928 45 35.1562V12.8438C45 7.4072 40.5928 3 35.1562 3Z" fill="#00005B"/>
<path d="M11.8594 32.9709V14.9459C11.8594 14.8234 11.9119 14.7534 12.0344 14.7534C12.3319 14.7534 12.6119 14.7534 13.0144 14.7359C13.4344 14.7184 13.8719 14.7184 14.3444 14.7009C14.8169 14.6834 15.3244 14.6834 15.8669 14.6659C16.4094 14.6484 16.9344 14.6484 17.4594 14.6484C18.8944 14.6484 20.0843 14.8234 21.0644 15.1909C21.9394 15.4884 22.7444 15.9784 23.4094 16.6259C23.9693 17.1859 24.4069 17.8684 24.6869 18.6209C24.9494 19.3559 25.0894 20.1084 25.0894 20.8959C25.0894 22.4009 24.7394 23.6435 24.0394 24.6234C23.3393 25.6034 22.3594 26.3384 21.2219 26.7584C20.0318 27.1959 18.7194 27.3534 17.2844 27.3534C16.8644 27.3534 16.5844 27.3534 16.4094 27.3359C16.2344 27.3185 15.9894 27.3185 15.6569 27.3185V32.936C15.6744 33.0584 15.5869 33.1634 15.4644 33.1809H15.3944H12.0694C11.9294 33.1809 11.8594 33.1109 11.8594 32.9534V32.9709ZM15.6744 18.1484V24.0284C15.9194 24.0459 16.1469 24.0635 16.3569 24.0635H17.2844C17.9669 24.0635 18.6494 23.9585 19.2969 23.7485C19.8569 23.591 20.3468 23.2584 20.7319 22.8209C21.0994 22.3835 21.2744 21.7884 21.2744 21.0185C21.2918 20.4759 21.1519 19.9334 20.8718 19.4609C20.5744 19.0059 20.1544 18.6559 19.6469 18.4634C18.9994 18.2009 18.2994 18.0959 17.5819 18.1134C17.1269 18.1134 16.7244 18.1134 16.3919 18.1309C16.0419 18.1134 15.7969 18.1309 15.6744 18.1484Z" fill="#9999FF"/>
<path d="M27.6094 19.1808H30.672C30.847 19.1808 30.987 19.3033 31.0395 19.4608C31.092 19.6009 31.1269 19.7408 31.1445 19.8983C31.1794 20.0734 31.2145 20.2658 31.2319 20.4409C31.2495 20.6333 31.267 20.8433 31.267 21.0709C31.792 20.4583 32.422 19.9508 33.1395 19.5658C33.9445 19.1108 34.872 18.8833 35.7994 18.8833C35.922 18.8658 36.027 18.9533 36.0445 19.0758V19.1458V22.5583C36.0445 22.6984 35.9569 22.7509 35.7645 22.7509C35.1345 22.7333 34.4869 22.7858 33.8745 22.9258C33.367 23.0308 32.877 23.1883 32.4045 23.3983C32.0719 23.5558 31.7569 23.7658 31.512 24.0458V32.9708C31.512 33.1459 31.4419 33.2158 31.2844 33.2158H27.837C27.697 33.2333 27.5745 33.1459 27.5569 33.0058V32.9359V23.2408C27.5569 22.8208 27.5569 22.3834 27.5395 21.9283C27.522 21.4733 27.522 21.0184 27.5044 20.5633C27.5044 20.1608 27.4695 19.7758 27.4345 19.3733C27.417 19.2858 27.4695 19.1983 27.5569 19.1808C27.5569 19.1633 27.592 19.1633 27.6094 19.1808Z" fill="#9999FF"/>
</svg>
