<svg width="44" height="44" viewBox="0 0 44 44" fill="none" xmlns="http://www.w3.org/2000/svg">
<circle cx="22" cy="22" r="22" fill="#0088FF"/>
<path d="M22 32.1255C21.7012 32.1255 21.4577 32.0314 21.2695 31.8433C21.0814 31.6551 20.9873 31.4089 20.9873 31.1045V17.2671L21.0952 13.9634L21.6929 14.2622L18.3228 17.981L15.5005 20.7783C15.4119 20.8669 15.3068 20.9388 15.1851 20.9941C15.0633 21.0439 14.9277 21.0688 14.7783 21.0688C14.5016 21.0688 14.2692 20.9748 14.0811 20.7866C13.8984 20.5985 13.8071 20.3605 13.8071 20.0728C13.8071 19.8016 13.9123 19.5609 14.1226 19.3506L21.2446 12.2202C21.3498 12.1151 21.466 12.0348 21.5933 11.9795C21.7261 11.9242 21.8617 11.8965 22 11.8965C22.1383 11.8965 22.2712 11.9242 22.3984 11.9795C22.5312 12.0348 22.6502 12.1151 22.7554 12.2202L29.8774 19.3506C30.0877 19.5609 30.1929 19.8016 30.1929 20.0728C30.1929 20.3605 30.0988 20.5985 29.9106 20.7866C29.728 20.9748 29.4984 21.0688 29.2217 21.0688C29.0778 21.0688 28.9422 21.0439 28.8149 20.9941C28.6932 20.9388 28.5881 20.8669 28.4995 20.7783L25.6772 17.981L22.2988 14.2622L22.9048 13.9634L23.0127 17.2671V31.1045C23.0127 31.4089 22.9186 31.6551 22.7305 31.8433C22.5423 32.0314 22.2988 32.1255 22 32.1255Z" fill="white"/>
</svg>
