<svg width="48" height="48" viewBox="0 0 48 48" fill="none" xmlns="http://www.w3.org/2000/svg">
<path d="M31.5024 4.67519C31.5024 3.35675 30.0262 3.35673 29.3701 3.52154C30.2886 2.79639 31.3657 2.9722 31.7484 3.19194L40.6185 7.54121C41.4636 7.95563 41.9997 8.8179 41.9997 9.76286V38.3746C41.9997 39.3322 41.4493 40.2038 40.587 40.6115L32.2405 44.5581C31.6663 44.8051 30.4198 45.4151 29.3701 44.5579C30.6823 44.8053 31.393 43.8714 31.5024 43.2396V4.67519Z" fill="url(#paint0_linear_81_237)"/>
<path d="M29.4768 3.49761C30.1731 3.36 31.5027 3.42383 31.5027 4.67504V14.5236L4.61038 34.8677C4.14033 35.2234 3.4788 35.1643 3.07843 34.7311L0.306798 31.732C-0.127404 31.2622 -0.0970235 30.5267 0.374436 30.0946L29.3703 3.52139L29.4768 3.49761Z" fill="url(#paint1_linear_81_237)"/>
<path d="M31.5027 33.5559L4.61038 13.2118C4.14033 12.8562 3.4788 12.9152 3.07843 13.3484L0.306798 16.3475C-0.127404 16.8173 -0.0970235 17.5527 0.374436 17.9849L29.3703 44.5581C30.6825 44.8053 31.3934 43.8714 31.5027 43.2396V33.5559Z" fill="url(#paint2_linear_81_237)"/>
<defs>
<linearGradient id="paint0_linear_81_237" x1="35.685" y1="3" x2="35.685" y2="45" gradientUnits="userSpaceOnUse">
<stop stop-color="#32B5F1"/>
<stop offset="1" stop-color="#2B9FED"/>
</linearGradient>
<linearGradient id="paint1_linear_81_237" x1="31.5027" y1="8.30073" x2="1.53256" y2="33.4574" gradientUnits="userSpaceOnUse">
<stop stop-color="#0F6FB3"/>
<stop offset="0.270551" stop-color="#1279B7"/>
<stop offset="0.421376" stop-color="#1176B5"/>
<stop offset="0.618197" stop-color="#0E69AC"/>
<stop offset="0.855344" stop-color="#0F70AF"/>
<stop offset="1" stop-color="#0F6DAD"/>
</linearGradient>
<linearGradient id="paint2_linear_81_237" x1="1.73283" y1="14.9756" x2="31.6186" y2="39.7211" gradientUnits="userSpaceOnUse">
<stop stop-color="#1791D2"/>
<stop offset="1" stop-color="#1173C5"/>
</linearGradient>
</defs>
</svg>
